<svg width="29" height="33" viewBox="0 0 29 33" fill="none" xmlns="http://www.w3.org/2000/svg">
<path d="M11.9143 14.2363C11.0015 14.2363 10.2808 15.037 10.2808 16.014C10.2808 16.9909 11.0175 17.7917 11.9143 17.7917C12.8272 17.7917 13.5479 16.9909 13.5479 16.014C13.5639 15.037 12.8272 14.2363 11.9143 14.2363ZM17.7599 14.2363C16.847 14.2363 16.1263 15.037 16.1263 16.014C16.1263 16.9909 16.863 17.7917 17.7599 17.7917C18.6728 17.7917 19.3935 16.9909 19.3935 16.014C19.3935 15.037 18.6728 14.2363 17.7599 14.2363Z" fill="#F2F2F2"/>
<path d="M25.5434 0.799744H4.08294C2.27321 0.799744 0.799805 2.27315 0.799805 4.09889V25.7516C0.799805 27.5773 2.27321 29.0507 4.08294 29.0507H22.2443L21.3955 26.0879L23.4454 27.9937L25.3833 29.7874L28.8266 32.8303V4.09889C28.8266 2.27315 27.3532 0.799744 25.5434 0.799744ZM19.3615 21.7157C19.3615 21.7157 18.785 21.0271 18.3045 20.4185C20.4025 19.8259 21.2033 18.5127 21.2033 18.5127C20.5467 18.9451 19.9221 19.2494 19.3615 19.4576C18.5608 19.7939 17.792 20.0181 17.0393 20.1462C15.5018 20.4345 14.0925 20.3544 12.8913 20.1302C11.9785 19.954 11.1937 19.6978 10.5371 19.4415C10.1688 19.2974 9.76837 19.1212 9.36799 18.897C9.31994 18.865 9.27189 18.849 9.22385 18.8169C9.19182 18.8009 9.1758 18.7849 9.15979 18.7689C8.87151 18.6087 8.71136 18.4966 8.71136 18.4966C8.71136 18.4966 9.48009 19.7779 11.514 20.3864C11.0336 20.995 10.441 21.7157 10.441 21.7157C6.90163 21.6036 5.55635 19.2814 5.55635 19.2814C5.55635 14.1245 7.86255 9.94447 7.86255 9.94447C10.1687 8.21482 12.3628 8.26287 12.3628 8.26287L12.523 8.45505C9.64024 9.28785 8.31098 10.5531 8.31098 10.5531C8.31098 10.5531 8.66331 10.3609 9.25588 10.0886C10.9695 9.33589 12.3308 9.12769 12.8913 9.07965C12.9874 9.06363 13.0675 9.04762 13.1636 9.04762C14.1405 8.9195 15.2456 8.88747 16.3987 9.01559C17.9201 9.19176 19.5537 9.64018 21.2193 10.5531C21.2193 10.5531 19.9541 9.35191 17.2315 8.51911L17.4557 8.26287C17.4557 8.26287 19.6498 8.21482 21.956 9.94447C21.956 9.94447 24.2622 14.1245 24.2622 19.2814C24.2622 19.2814 22.9009 21.6036 19.3615 21.7157Z" fill="#F2F2F2"/>
</svg>
